<?xml version="1.0" encoding="UTF-8"?>
<!DOCTYPE svg PUBLIC "-//W3C//DTD SVG 1.1//EN" "http://www.w3.org/Graphics/SVG/1.1/DTD/svg11.dtd">
<svg xmlns="http://www.w3.org/2000/svg" version="1.1" width="1024px" height="1024px" style="shape-rendering:geometricPrecision; text-rendering:geometricPrecision; image-rendering:optimizeQuality; fill-rule:evenodd; clip-rule:evenodd" xmlns:xlink="http://www.w3.org/1999/xlink">
<g><path style="opacity:1" fill="#17242e" d="M -0.5,-0.5 C 340.833,-0.5 682.167,-0.5 1023.5,-0.5C 1023.5,340.833 1023.5,682.167 1023.5,1023.5C 682.167,1023.5 340.833,1023.5 -0.5,1023.5C -0.5,682.167 -0.5,340.833 -0.5,-0.5 Z"/></g>
<g><path style="opacity:1" fill="#f2d8b8" d="M 676.5,136.5 C 730.241,133.46 775.408,151.46 812,190.5C 855.619,246.42 861.286,306.087 829,369.5C 789.44,432.626 746.44,493.292 700,551.5C 697.933,554.07 695.433,556.07 692.5,557.5C 690.247,556.747 688.413,555.414 687,553.5C 639.654,495.143 595.987,434.143 556,370.5C 527.354,317.833 527.354,265.166 556,212.5C 584.138,168.213 624.305,142.879 676.5,136.5 Z"/></g>
<g><path style="opacity:1" fill="#17242e" d="M 685.5,212.5 C 727.512,212.572 755.679,232.239 770,271.5C 778.616,310.078 766.783,340.578 734.5,363C 695.3,382.749 660.466,376.915 630,345.5C 605.363,310.806 605.363,276.139 630,241.5C 644.894,224.804 663.394,215.137 685.5,212.5 Z"/></g>
<g><path style="opacity:1" fill="#f2dab9" d="M 513.5,323.5 C 513.5,347.833 513.5,372.167 513.5,396.5C 517.167,396.5 520.833,396.5 524.5,396.5C 531.13,395.454 537.797,395.287 544.5,396C 548.508,401.525 551.842,407.358 554.5,413.5C 546.299,413.517 538.299,414.183 530.5,415.5C 524.833,415.5 519.167,415.5 513.5,415.5C 513.5,452.833 513.5,490.167 513.5,527.5C 554.833,527.5 596.167,527.5 637.5,527.5C 641.5,532.833 645.5,538.167 649.5,543.5C 603.905,544.495 558.239,544.828 512.5,544.5C 512.168,582.004 512.502,619.337 513.5,656.5C 557.794,656.36 601.128,662.693 643.5,675.5C 648.655,660.914 652.488,645.914 655,630.5C 658.819,607.951 661.652,585.284 663.5,562.5C 669.184,567.351 674.351,572.684 679,578.5C 677.561,612.965 672.061,646.799 662.5,680C 663.444,681.477 664.777,682.477 666.5,683C 692.629,691.899 717.296,703.732 740.5,718.5C 777.66,670.718 798.327,616.385 802.5,555.5C 802.5,552.167 802.5,548.833 802.5,545.5C 779.824,545.833 757.157,545.5 734.5,544.5C 734.863,543.817 735.196,543.15 735.5,542.5C 739.214,538.117 742.547,533.45 745.5,528.5C 764.424,527.513 783.424,527.18 802.5,527.5C 802.5,524.167 802.5,520.833 802.5,517.5C 801.244,499.628 798.577,481.961 794.5,464.5C 799.052,456.283 804.385,448.616 810.5,441.5C 830.083,508.795 828.916,575.795 807,642.5C 772.472,734.362 709.638,798.529 618.5,835C 500.885,873.275 394.885,852.941 300.5,774C 224.002,703.457 188.502,615.957 194,511.5C 203.008,417.954 244.841,343.121 319.5,287C 378.272,244.746 443.939,225.08 516.5,228C 518.577,228.192 520.577,228.692 522.5,229.5C 510.644,260.062 507.644,291.395 513.5,323.5 Z"/></g>
<g><path style="opacity:1" fill="#17242e" d="M 493.5,251.5 C 494.495,299.428 494.828,347.428 494.5,395.5C 490.629,395.185 486.962,395.518 483.5,396.5C 447.85,394.558 412.85,388.725 378.5,379C 376.777,378.477 375.444,377.477 374.5,376C 388.676,338.523 410.009,305.856 438.5,278C 454.443,264.363 472.777,255.529 493.5,251.5 Z"/></g>
<g><path style="opacity:1" fill="#17232d" d="M 426.5,259.5 C 427.239,259.369 427.906,259.536 428.5,260C 411.088,275.74 396.255,293.574 384,313.5C 373.301,332.065 363.801,351.231 355.5,371C 332.23,364.539 309.897,355.539 288.5,344C 326.785,303.352 372.785,275.185 426.5,259.5 Z"/></g>
<g><path style="opacity:1" fill="#000003" d="M 493.5,251.5 C 495.495,299.488 496.162,347.822 495.5,396.5C 491.5,396.5 487.5,396.5 483.5,396.5C 486.962,395.518 490.629,395.185 494.5,395.5C 494.828,347.428 494.495,299.428 493.5,251.5 Z"/></g>
<g><path style="opacity:1" fill="#17242d" d="M 329.5,492.5 C 327.784,503.618 327.117,514.951 327.5,526.5C 290.5,526.5 253.5,526.5 216.5,526.5C 216.459,516.787 217.125,507.12 218.5,497.5C 218.489,495.955 218.156,494.622 217.5,493.5C 225.295,443.577 244.795,398.911 276,359.5C 299.674,371.615 324.174,381.781 349.5,390C 339.156,423.553 332.489,457.719 329.5,492.5 Z"/></g>
<g><path style="opacity:1" fill="#000008" d="M 513.5,323.5 C 514.498,347.328 514.831,371.328 514.5,395.5C 518.042,395.187 521.375,395.521 524.5,396.5C 520.833,396.5 517.167,396.5 513.5,396.5C 513.5,372.167 513.5,347.833 513.5,323.5 Z"/></g>
<g><path style="opacity:1" fill="#17242e" d="M 477.5,415.5 C 482.975,416.489 488.642,416.822 494.5,416.5C 494.5,453.167 494.5,489.833 494.5,526.5C 445.833,526.5 397.167,526.5 348.5,526.5C 348.81,523.287 348.477,520.287 347.5,517.5C 348.822,476.072 355.489,435.572 367.5,396C 403.6,405.85 440.267,412.35 477.5,415.5 Z"/></g>
<g><path style="opacity:1" fill="#020308" d="M 329.5,492.5 C 328.945,504.159 328.612,515.826 328.5,527.5C 290.833,527.5 253.167,527.5 215.5,527.5C 215.303,516.107 215.97,504.774 217.5,493.5C 218.156,494.622 218.489,495.955 218.5,497.5C 217.125,507.12 216.459,516.787 216.5,526.5C 253.5,526.5 290.5,526.5 327.5,526.5C 327.117,514.951 327.784,503.618 329.5,492.5 Z"/></g>
<g><path style="opacity:1" fill="#000003" d="M 477.5,415.5 C 483.5,415.5 489.5,415.5 495.5,415.5C 495.5,452.833 495.5,490.167 495.5,527.5C 446.167,527.5 396.833,527.5 347.5,527.5C 347.5,524.167 347.5,520.833 347.5,517.5C 348.477,520.287 348.81,523.287 348.5,526.5C 397.167,526.5 445.833,526.5 494.5,526.5C 494.5,489.833 494.5,453.167 494.5,416.5C 488.642,416.822 482.975,416.489 477.5,415.5 Z"/></g>
<g><path style="opacity:1" fill="#000004" d="M 530.5,415.5 C 526.575,416.518 521.241,416.851 514.5,416.5C 514.5,453.167 514.5,489.833 514.5,526.5C 556.239,526.167 597.239,526.5 637.5,527.5C 596.167,527.5 554.833,527.5 513.5,527.5C 513.5,490.167 513.5,452.833 513.5,415.5C 519.167,415.5 524.833,415.5 530.5,415.5 Z"/></g>
<g><path style="opacity:1" fill="#000104" d="M 802.5,517.5 C 802.5,520.833 802.5,524.167 802.5,527.5C 783.424,527.18 764.424,527.513 745.5,528.5C 763.803,526.513 782.47,525.846 801.5,526.5C 801.19,523.287 801.523,520.287 802.5,517.5 Z"/></g>
<g><path style="opacity:1" fill="#fefbe1" d="M 215.5,545.5 C 253.33,544.501 291.33,544.168 329.5,544.5C 329.821,550.026 329.488,555.36 328.5,560.5C 328.5,555.5 328.5,550.5 328.5,545.5C 290.833,545.5 253.167,545.5 215.5,545.5 Z"/></g>
<g><path style="opacity:1" fill="#01040b" d="M 215.5,545.5 C 253.167,545.5 290.833,545.5 328.5,545.5C 328.5,550.5 328.5,555.5 328.5,560.5C 328.986,568.158 329.32,575.825 329.5,583.5C 328.612,581.967 328.112,579.634 328,576.5C 327.5,566.506 327.334,556.506 327.5,546.5C 290.5,546.5 253.5,546.5 216.5,546.5C 216.818,551.032 216.485,555.366 215.5,559.5C 215.5,554.833 215.5,550.167 215.5,545.5 Z"/></g>
<g><path style="opacity:1" fill="#000006" d="M 495.5,655.5 C 494.502,619.337 494.168,583.004 494.5,546.5C 445.833,546.5 397.167,546.5 348.5,546.5C 348.823,552.69 348.49,558.69 347.5,564.5C 347.5,558.167 347.5,551.833 347.5,545.5C 396.833,545.5 446.167,545.5 495.5,545.5C 495.5,582.167 495.5,618.833 495.5,655.5 Z"/></g>
<g><path style="opacity:1" fill="#000007" d="M 649.5,545.5 C 604.67,546.499 559.67,546.832 514.5,546.5C 514.832,583.004 514.498,619.337 513.5,655.5C 513.5,618.833 513.5,582.167 513.5,545.5C 558.833,545.5 604.167,545.5 649.5,545.5 Z"/></g>
<g><path style="opacity:1" fill="#000109" d="M 735.5,542.5 C 735.196,543.15 734.863,543.817 734.5,544.5C 757.157,545.5 779.824,545.833 802.5,545.5C 802.5,548.833 802.5,552.167 802.5,555.5C 801.523,552.713 801.19,549.713 801.5,546.5C 778.833,546.5 756.167,546.5 733.5,546.5C 733.343,545.127 733.51,543.793 734,542.5C 734.69,541.262 735.19,541.262 735.5,542.5 Z"/></g>
<g><path style="opacity:1" fill="#17242d" d="M 329.5,583.5 C 332.355,616.28 338.355,648.613 347.5,680.5C 335.979,685.404 324.312,690.237 312.5,695C 299.439,700.944 286.939,707.778 275,715.5C 240.336,669.366 220.503,617.366 215.5,559.5C 216.485,555.366 216.818,551.032 216.5,546.5C 253.5,546.5 290.5,546.5 327.5,546.5C 327.334,556.506 327.5,566.506 328,576.5C 328.112,579.634 328.612,581.967 329.5,583.5 Z"/></g>
<g><path style="opacity:1" fill="#17242e" d="M 495.5,655.5 C 452.004,656.962 409.171,663.629 367,675.5C 365.265,674.318 364.265,672.651 364,670.5C 354.54,635.78 349.04,600.446 347.5,564.5C 348.49,558.69 348.823,552.69 348.5,546.5C 397.167,546.5 445.833,546.5 494.5,546.5C 494.168,583.004 494.502,619.337 495.5,655.5 Z"/></g>
<g><path style="opacity:1" fill="#fefbde" d="M 649.5,543.5 C 649.5,544.167 649.5,544.833 649.5,545.5C 604.167,545.5 558.833,545.5 513.5,545.5C 513.5,582.167 513.5,618.833 513.5,655.5C 513.5,655.833 513.5,656.167 513.5,656.5C 512.502,619.337 512.168,582.004 512.5,544.5C 558.239,544.828 603.905,544.495 649.5,543.5 Z"/></g>
<g><path style="opacity:1" fill="#17242e" d="M 489.5,674.5 C 490.919,675.451 492.585,675.784 494.5,675.5C 494.5,726.833 494.5,778.167 494.5,829.5C 492.585,829.216 490.919,829.549 489.5,830.5C 470.393,826.115 453.727,817.282 439.5,804C 408.129,772.779 385.796,735.945 372.5,693.5C 399.837,685.633 427.504,679.966 455.5,676.5C 466.839,675.916 478.172,675.25 489.5,674.5 Z"/></g>
<g><path style="opacity:1" fill="#17242d" d="M 522.5,674.5 C 524.5,674.5 526.5,674.5 528.5,674.5C 561.857,676.391 594.857,681.558 627.5,690C 631.376,690.881 635.042,692.214 638.5,694C 626.453,729.28 608.619,761.113 585,789.5C 571.098,804.743 554.932,816.909 536.5,826C 531.511,827.662 526.511,829.162 521.5,830.5C 519.393,829.532 517.059,829.198 514.5,829.5C 514.5,778.167 514.5,726.833 514.5,675.5C 517.385,675.806 520.052,675.473 522.5,674.5 Z"/></g>
<g><path style="opacity:1" fill="#000003" d="M 489.5,674.5 C 491.5,674.5 493.5,674.5 495.5,674.5C 495.5,726.833 495.5,779.167 495.5,831.5C 493.621,830.659 491.621,830.325 489.5,830.5C 490.919,829.549 492.585,829.216 494.5,829.5C 494.5,778.167 494.5,726.833 494.5,675.5C 492.585,675.784 490.919,675.451 489.5,674.5 Z"/></g>
<g><path style="opacity:1" fill="#16232d" d="M 656.5,699.5 C 682.214,707.525 706.214,719.025 728.5,734C 687.904,778.8 638.237,808.467 579.5,823C 596.581,807.591 611.081,790.091 623,770.5C 636.862,748.108 648.029,724.442 656.5,699.5 Z"/></g>
<g><path style="opacity:1" fill="#16232d" d="M 351.5,699.5 C 352.496,699.414 353.329,699.748 354,700.5C 369.431,745.564 393.598,785.064 426.5,819C 371.608,802.779 324.941,773.446 286.5,731C 296.519,723.987 307.186,717.987 318.5,713C 329.56,708.376 340.56,703.876 351.5,699.5 Z"/></g>
<g><path style="opacity:1" fill="#fcfbe2" d="M 495.5,831.5 C 495.5,779.167 495.5,726.833 495.5,674.5C 493.5,674.5 491.5,674.5 489.5,674.5C 478.172,675.25 466.839,675.916 455.5,676.5C 468.931,674.326 482.598,673.326 496.5,673.5C 496.832,726.336 496.499,779.003 495.5,831.5 Z"/></g>
<g><path style="opacity:1" fill="#fefadb" d="M 528.5,674.5 C 526.5,674.5 524.5,674.5 522.5,674.5C 519.5,674.5 516.5,674.5 513.5,674.5C 513.168,727.003 513.501,779.336 514.5,831.5C 515.873,831.343 517.207,831.51 518.5,832C 516.527,832.495 514.527,832.662 512.5,832.5C 512.5,779.5 512.5,726.5 512.5,673.5C 522.871,672.656 528.204,672.989 528.5,674.5 Z"/></g>
<g><path style="opacity:1" fill="#000007" d="M 522.5,674.5 C 520.052,675.473 517.385,675.806 514.5,675.5C 514.5,726.833 514.5,778.167 514.5,829.5C 517.059,829.198 519.393,829.532 521.5,830.5C 518.941,830.198 516.607,830.532 514.5,831.5C 513.501,779.336 513.168,727.003 513.5,674.5C 516.5,674.5 519.5,674.5 522.5,674.5 Z"/></g>
</svg>
